#!OML:ASF I:\golf\golf\golf 2\Subject 1\2002-09-07\Subject1.ASF
:FULLY-SPECIFIED
:DEGREES
325
root -5.88497 18.0304 1.32369 -168.021 63.4857 -182.783
lowerback -1.19385 -8.76832 2.84393
upperback 4.48481 -11.7706 10.9839
thorax 7.29756 -5.82608 9.25725
lowerneck -13.7491 0.126375 3.69493
upperneck 24.8195 4.42942 -16.4029
head 10.7214 0.827135 -5.979
rclavicle -6.20208e-014 -3.81667e-014
rhumerus -6.25098 -1.69768 -82.7787
rradius 69.5804
rwrist -52.9224
rhand -63.0349 15.4748
rfingers 7.12502
rthumb -35.0361 -11.0728
lclavicle -6.20208e-014 -3.81667e-014
lhumerus 35.1181 -59.7035 90.0029
lradius 18.5147
lwrist -7.02752
lhand -10.1266 30.8385
lfingers 7.12502
lthumb -164.138 -119.791
rfemur -23.3086 -2.76025 7.21666
rtibia 39.5778
rfoot -9.84232 -22.503
rtoes 1.94523
lfemur -29.7237 5.85248 -20.1991
ltibia 21.73
lfoot -4.79009 -19.4863
ltoes -3.60117
326
root -5.85936 18.0465 1.2594 -169.7 61.4568 -183.597
lowerback -1.6798 -8.60809 2.86863
upperback 4.40934 -11.5666 11.3701
thorax 7.55418 -5.71533 9.64056
lowerneck -13.4797 -0.909305 3.00489
upperneck 25.2233 3.22971 -16.3644
head 10.6565 0.242677 -6.00352
rclavicle -9.85972e-014 -4.77083e-014
rhumerus -6.83989 -0.243499 -83.4353
rradius 66.8329
rwrist -56.5914
rhand -61.8677 12.8527
rfingers 7.12502
rthumb -33.9281 -13.947
lclavicle -9.85972e-014 -4.77083e-014
lhumerus 31.7164 -59.2063 91.7495
lradius 18.2366
lwrist -7.16627
lhand -9.6058 33.0452
lfingers 7.12502
lthumb -163.637 -117.625
rfemur -21.6248 -2.95287 6.62642
rtibia 39.9688
rfoot -9.90081 -22.8129
rtoes 4.65097
lfemur -27.9589 5.24853 -20.8532
ltibia 20.3098
lfoot -5.08103 -20.9176
ltoes -6.25891
327
root -5.834 18.0672 1.20156 -171.068 59.546 -184.114
lowerback -2.19429 -8.35945 2.90456
upperback 4.34411 -11.2443 11.7723
thorax 7.81833 -5.54405 10.0562
lowerneck -13.2102 -1.96211 2.26954
upperneck 25.6517 2.00808 -16.2765
head 10.6093 -0.351287 -5.99909
rclavicle -2.22639e-014 6.36111e-014
rhumerus -7.28237 1.0561 -84.0352
rradius 63.9991
rwrist -60.1261
rhand -60.4173 9.92811
rfingers 7.12502
rthumb -32.549 -17.1662
lclavicle -2.22639e-014 6.36111e-014
lhumerus 28.6175 -58.7789 93.2942
lradius 18.0739
lwrist -7.50191
lhand -8.0673 35.513
lfingers 7.12502
lthumb -162.156 -115.286
rfemur -20.0461 -3.09885 6.18635
rtibia 40.329
rfoot -9.28142 -23.199
rtoes 5.39369
lfemur -26.2639 4.80731 -21.3865
ltibia 18.9664
lfoot -4.22355 -22.3872
ltoes -4.48432
328
root -5.80568 18.0832 1.14938 -172.131 57.9239 -184.468
lowerback -2.77434 -8.00384 2.91657
upperback 4.25856 -10.7852 12.125
thorax 8.0626 -5.30591 10.4495
lowerneck -12.8807 -2.9929 1.65103
upperneck 25.9661 0.732459 -16.1049
head 10.5118 -0.949291 -5.97621
rclavicle -5.56597e-014 -8.5875e-014
rhumerus -7.56604 1.90413 -84.9101
rradius 60.9681
rwrist -63.1028
rhand -58.1532 6.36834
rfingers 7.12502
rthumb -30.392 -21.1472
lclavicle -5.56597e-014 -8.5875e-014
lhumerus 26.1132 -58.827 94.0522
lradius 18.0755
lwrist -6.91888
lhand -4.7003 39.3135
lfingers 7.12502
lthumb -158.919 -111.812
rfemur -18.7384 -2.8653 5.81184
rtibia 40.707
rfoot -8.54178 -23.6895
rtoes 5.96531
lfemur -24.7266 4.56246 -21.843
ltibia 17.635
lfoot -2.3893 -23.4942
ltoes 0.620516
329
root -5.77311 18.0923 1.10345 -173.309 56.6027 -185.064
lowerback -3.38081 -7.54068 2.76411
upperback 4.17162 -10.187 12.3206
thorax 8.28458 -5.01014 10.7809
lowerneck -12.5988 -4.02237 1.11547
upperneck 26.3617 -0.59332 -15.8033
head 10.4593 -1.5553 -5.92665
rclavicle 7.15625e-014 -3.49861e-014
rhumerus -7.71029 2.70066 -86.0366
rradius 57.7558
rwrist -65.1909
rhand -55.7403 3.07188
rfingers 7.12502
rthumb -28.088 -24.8451
lclavicle 7.15625e-014 -3.49861e-014
lhumerus 24.052 -59.397 94.1472
lradius 18.1562
lwrist -5.2322
lhand -1.41908 43.7679
lfingers 7.12502
lthumb -155.77 -107.743
rfemur -17.6043 -2.26862 5.25551
rtibia 41.1224
rfoot -8.0285 -24.0362
rtoes 7.42258
lfemur -23.2536 4.59655 -22.4739
ltibia 16.3211
lfoot -0.763817 -24.4139
ltoes 5.11053
330
root -5.75459 18.0978 1.0467 -174.369 54.3416 -185.546
lowerback -3.93512 -7.36161 3.03685
upperback 3.91212 -9.95763 12.4749
thorax 8.25823 -4.85835 10.7832
lowerneck -12.3366 -5.04642 0.544355
upperneck 26.8782 -1.91639 -15.3864
head 10.4727 -2.15325 -5.83313
rclavicle 2.22639e-014 2.54444e-014
rhumerus -7.7562 3.19195 -87.0816
rradius 54.4522
rwrist -66.1248
rhand -52.8971 -1.29301
rfingers 7.12502
rthumb -25.3671 -29.6256
lclavicle 2.22639e-014 2.54444e-014
lhumerus 22.3963 -60.5073 93.7452
lradius 18.3483
lwrist -2.455
lhand 0.950918 48.1385
lfingers 7.12502
lthumb -153.499 -103.695
rfemur -16.209 -2.49467 4.80249
rtibia 41.5521
rfoot -7.3597 -24.3468
rtoes 8.64586
lfemur -21.874 3.83348 -23.0493
ltibia 15.0339
lfoot 0.679464 -25.4178
ltoes 8.15872
331
root -5.72066 18.108 1.00638 -175.075 53.0557 -185.725
lowerback -4.44806 -6.85062 3.06788
upperback 3.71085 -9.27657 12.6348
thorax 8.23506 -4.50364 11.005
lowerneck -12.0551 -5.96684 0.0674826
upperneck 27.4455 -3.09808 -15.005
head 10.5276 -2.67742 -5.75533
rclavicle -1.11319e-014 -1.43125e-013
rhumerus -7.87579 4.02205 -88.0904
rradius 51.1643
rwrist -67.0852
rhand -50.5609 -3.82828
rfingers 7.12502
rthumb -23.1273 -32.4601
lclavicle -1.11319e-014 -1.43125e-013
lhumerus 19.6883 -60.2196 95.211
lradius 17.533
lwrist -0.632963
lhand 2.76524 52.0966
lfingers 7.12502
lthumb -151.764 -100.011
rfemur -15.2713 -1.95624 4.54442
rtibia 41.9619
rfoot -5.90495 -24.6352
rtoes 7.80001
lfemur -20.539 4.07319 -23.4754
ltibia 13.8027
lfoot 1.6365 -26.3999
ltoes 9.86592
332
root -5.6874 18.1134 0.958695 -175.883 51.3843 -186.044
lowerback -4.90224 -6.48083 2.98295
upperback 3.41424 -8.75835 12.8446
thorax 8.12937 -4.2361 11.3415
lowerneck -11.9526 -6.83842 -0.312654
upperneck 28.1386 -4.14198 -14.8468
head 10.6825 -3.15384 -5.78011
rclavicle 1.22451e-013 -1.46306e-013
rhumerus -7.67884 4.65268 -88.9982
rradius 47.5761
rwrist -67.3673
rhand -46.8082 -7.08216
rfingers 7.12502
rthumb -19.5229 -36.122
lclavicle 1.22451e-013 -1.46306e-013
lhumerus 16.9471 -59.4618 96.9811
lradius 16.8107
lwrist 1.23494
lhand 4.30255 56.1206
lfingers 7.12502
lthumb -150.295 -96.239
rfemur -14.1601 -1.76732 4.21668
rtibia 42.3147
rfoot -4.8836 -24.8789
rtoes 8.32009
lfemur -19.2274 4.04156 -24.0057
ltibia 12.6315
lfoot 2.46247 -27.452
ltoes 10.9558
333
root -5.65871 18.1177 0.911012 -176.616 49.9156 -186.276
lowerback -5.27366 -6.13271 2.86035
upperback 3.07977 -8.24771 13.1086
thorax 7.94609 -3.97267 11.7767
lowerneck -11.5056 -7.72243 -0.825342
upperneck 28.6356 -5.19257 -14.7401
head 10.7081 -3.63439 -5.76896
rclavicle 6.36111e-015 6.36111e-015
rhumerus -7.27513 5.06482 -89.9153
rradius 43.7149
rwrist -66.896
rhand -42.1411 -9.71813
rfingers 7.12502
rthumb -15.0311 -39.1525
lclavicle 6.36111e-015 6.36111e-015
lhumerus 14.1847 -58.2372 98.8703
lradius 16.234
lwrist 3.42723
lhand 5.72135 59.9804
lfingers 7.12502
lthumb -148.942 -92.6291
rfemur -13.0899 -1.43929 3.91616
rtibia 42.6012
rfoot -4.11253 -25.0378
rtoes 10.8385
lfemur -17.9337 3.80497 -24.4047
ltibia 11.5511
lfoot 3.14929 -28.1349
ltoes 11.512
334
root -5.63467 18.1179 0.862492 -177.261 48.4669 -186.351
lowerback -5.59327 -5.77882 2.92692
upperback 2.67707 -7.7197 13.3426
thorax 7.61227 -3.68006 12.0723
lowerneck -10.6136 -8.65419 -1.4549
upperneck 28.9907 -6.3576 -14.5025
head 10.6023 -4.14669 -5.66101
rclavicle 1.11319e-014 -1.01778e-013
rhumerus -6.93588 5.35884 -90.8896
rradius 39.9248
rwrist -66.082
rhand -37.3812 -11.6499
rfingers 7.12502
rthumb -10.4424 -41.3706
lclavicle 1.11319e-014 -1.01778e-013
lhumerus 11.2929 -56.7818 100.891
lradius 15.7874
lwrist 6.24147
lhand 6.95631 63.6786
lfingers 7.12502
lthumb -147.766 -270.837
rfemur -11.9699 -1.17004 3.71552
rtibia 42.8093
rfoot -3.24451 -25.0549
rtoes 12.7597
lfemur -16.6837 3.38805 -24.6522
ltibia 10.607
lfoot 4.05463 -28.6088
ltoes 13.0152
335
root -5.59695 18.1227 0.825095 -177.481 47.4754 -186.096
lowerback -6.01176 -5.21405 2.83984
upperback 2.31803 -6.89628 13.7236
thorax 7.36623 -3.24745 12.6857
lowerneck -9.85625 -9.62599 -2.14769
upperneck 29.3291 -7.60182 -14.1707
head 10.5348 -4.6969 -5.52041
rclavicle 8.5875e-014 -4.77083e-014
rhumerus -6.33115 5.69444 -91.6546
rradius 36.1882
rwrist -64.6866
rhand -32.5442 -13.1876
rfingers 7.12502
rthumb -5.77419 -43.089
lclavicle 8.5875e-014 -4.77083e-014
lhumerus 8.71954 -54.8369 102.87
lradius 15.3391
lwrist 8.93075
lhand 7.59211 66.9803
lfingers 7.12502
lthumb -147.161 -274.014
rfemur -11.1759 -0.514578 3.86755
rtibia 42.9466
rfoot -2.38542 -25.3812
rtoes 13.4593
lfemur -15.7152 3.14535 -24.5529
ltibia 9.88896
lfoot 4.9747 -28.7449
ltoes 15.0202
336
root -5.57339 18.1207 0.776714 -177.83 45.8357 -185.72
lowerback -6.07674 -4.98039 2.75848
upperback 1.95332 -6.44194 14.3158
thorax 7.00645 -2.98491 13.5307
lowerneck -9.06177 -10.4707 -3.0793
upperneck 29.209 -8.71763 -13.7716
head 10.3399 -5.2099 -5.27019
rclavicle -3.97569e-015 -2.92611e-013
rhumerus -5.36957 6.84798 -92.1737
rradius 32.7962
rwrist -63.3794
rhand -28.8924 -13.5895
rfingers 7.12502
rthumb -2.24779 -43.5574
lclavicle -3.97569e-015 -2.92611e-013
lhumerus 6.82807 -51.7639 104.56
lradius 14.7768
lwrist 10.986
lhand 7.60958 68.9243
lfingers 7.12502
lthumb -147.144 -275.955
rfemur -9.892 -0.484393 4.1063
rtibia 42.999
rfoot -1.42245 -25.6564
rtoes 13.6637
lfemur -14.6592 2.25271 -24.4144
ltibia 9.42317
lfoot 5.51966 -28.9255
ltoes 16.1831
337
root -5.54895 18.1209 0.730209 -178.057 44.2883 -185.249
lowerback -6.20121 -4.69757 2.77377
upperback 1.64127 -5.92869 14.8532
thorax 6.69368 -2.68082 14.266
lowerneck -8.34385 -11.2705 -3.81151
upperneck 29.0431 -9.82106 -13.4082
head 10.1448 -5.70635 -5.06566
rclavicle 8.34896e-014 -2.54444e-014
rhumerus -4.11738 7.73408 -92.8219
rradius 29.4886
rwrist -60.4134
rhand -25.5806 -13.6837
rfingers 7.12502
rthumb 0.950818 -43.6613
lclavicle 8.34896e-014 -2.54444e-014
lhumerus 5.58019 -48.9694 105.523
lradius 14.2949
lwrist 13.906
lhand 7.94998 69.2095
lfingers 7.12502
lthumb -146.821 -276.172
rfemur -8.6792 -0.526769 4.45037
rtibia 42.9708
rfoot -0.222194 -25.4944
rtoes 13.4324
lfemur -13.761 1.4512 -24.2081
ltibia 9.1556
lfoot 5.45504 -29.2107
ltoes 16.4442
